<?xml version="1.0" standalone="no"?>
<!DOCTYPE svg PUBLIC "-//W3C//DTD SVG 20010904//EN"
 "http://www.w3.org/TR/2001/REC-SVG-20010904/DTD/svg10.dtd">
<svg version="1.0" xmlns="http://www.w3.org/2000/svg"
 width="500.000000pt" height="500.000000pt" viewBox="0 0 500.000000 500.000000"
 preserveAspectRatio="xMidYMid meet">

<g transform="translate(0.000000,500.000000) scale(0.100000,-0.100000)"
fill="#000000" stroke="none">
<path d="M1405 2648 c-3 -8 -4 -90 -3 -183 l3 -170 24 -3 c13 -2 28 2 32 10 5
7 9 63 9 125 0 105 1 113 26 142 21 26 33 31 68 31 71 0 80 -18 86 -174 l5
-131 30 0 30 0 3 123 c3 150 -7 196 -51 222 -54 33 -149 20 -187 -25 -14 -17
-15 -16 -20 11 -4 20 -12 30 -28 32 -12 2 -24 -3 -27 -10z"/>
<path d="M1899 2651 c-43 -14 -69 -31 -69 -47 0 -24 24 -26 84 -9 45 13 63 14
90 5 37 -12 46 -26 46 -70 l0 -27 -84 -5 c-91 -5 -129 -21 -148 -64 -18 -39 1
-94 41 -121 49 -33 128 -32 165 2 33 30 34 31 38 3 2 -17 10 -23 28 -23 l25 0
3 137 c3 158 -6 190 -63 214 -37 15 -113 17 -156 5z m151 -225 c0 -48 -40 -86
-91 -86 -65 0 -102 56 -61 92 21 20 44 25 105 27 47 1 47 1 47 -33z"/>
<path d="M2242 2648 c-14 -14 -17 -324 -3 -346 4 -8 19 -12 32 -10 23 3 24 6
29 125 6 144 21 176 84 181 67 6 76 -12 76 -147 0 -146 4 -161 40 -161 36 0
40 16 40 153 0 101 2 109 25 132 29 30 95 35 116 8 10 -11 16 -58 19 -152 l5
-136 30 0 30 0 0 147 c0 133 -2 149 -21 175 -41 55 -139 56 -193 3 -28 -29
-30 -29 -36 -10 -18 56 -133 65 -185 15 l-28 -27 -4 28 c-3 32 -34 44 -56 22z"/>
<path d="M2935 2644 c-43 -16 -56 -30 -48 -52 6 -14 16 -14 104 8 57 14 95 1
110 -37 19 -51 11 -57 -85 -65 -100 -7 -135 -25 -148 -74 -11 -42 8 -92 46
-115 47 -29 126 -26 165 6 l30 26 3 -23 c2 -17 11 -24 31 -26 l27 -3 0 143 c0
94 -5 152 -13 168 -27 55 -134 76 -222 44z m170 -194 c10 -17 -15 -79 -38 -95
-28 -20 -91 -19 -111 1 -19 19 -21 67 -3 82 26 21 141 30 152 12z"/>
<path d="M3292 2648 c-14 -14 -17 -324 -3 -346 4 -8 19 -12 32 -10 23 3 24 6
30 118 4 63 7 120 8 126 0 6 13 23 27 38 20 20 37 26 69 26 67 0 75 -16 75
-154 0 -64 5 -126 10 -137 16 -29 58 -25 66 6 10 42 -1 258 -16 287 -34 70
-167 77 -221 12 -13 -16 -14 -15 -19 12 -6 32 -36 44 -58 22z"/>
</g>
</svg>
